HIERARCHY
ROOT hip
{
	OFFSET	0.00  0.00  0.00 
	CHANNELS 6 Xposition Yposition Zposition Xrotation Zrotation Yrotation
	JOINT abdomen
	{
		OFFSET	0.000000 3.402643 0.000000
		CHANNELS 3 Xrotation Zrotation Yrotation
		JOINT chest
		{
			OFFSET	0.000000 8.438564 -0.680529
			CHANNELS 3 Xrotation Zrotation Yrotation
			JOINT neck
			{
				OFFSET	0.000000 10.207942 -0.272212
				CHANNELS 3 Xrotation Zrotation Yrotation
				JOINT head
				{
					OFFSET	0.000000 3.130431 0.000000
					CHANNELS 3 Xrotation Zrotation Yrotation
					End Site
					{
						OFFSET 0.000000 3.130435 0.000000
					}
				}
			}
			JOINT lCollar
			{
				OFFSET	3.538753 6.669187 -0.816635
				CHANNELS 3 Yrotation Zrotation Xrotation
				JOINT lShldr
				{
					OFFSET	3.130435 0.000000 0.000000
					CHANNELS 3 Zrotation Yrotation Xrotation
					JOINT lForeArm
					{
						OFFSET	10.207940 0.000000 0.000000
						CHANNELS 3 Yrotation Zrotation Xrotation
						JOINT lHand
						{
							OFFSET	8.302459 0.000000 0.000000
							CHANNELS 3 Zrotation Yrotation Xrotation
							End Site
							{
								OFFSET 4.083176 0.000000 0.000000
							}
						}
					}
				}
			}
			JOINT rCollar
			{
				OFFSET	-3.538753 6.669187 -0.816635
				CHANNELS 3 Yrotation Zrotation Xrotation
				JOINT rShldr
				{
					OFFSET	-3.130435 0.000000 0.000000
					CHANNELS 3 Zrotation Yrotation Xrotation
					JOINT rForeArm
					{
						OFFSET	-10.207940 0.000000 0.000000
						CHANNELS 3 Yrotation Zrotation Xrotation
						JOINT rHand
						{
							OFFSET	-8.302459 0.000000 0.000000
							CHANNELS 3 Zrotation Yrotation Xrotation
							End Site
							{
								OFFSET -4.083176 0.000000 0.000000
							}
						}
					}
				}
			}
		}
	}
	JOINT lThigh
	{
		OFFSET	5.308129 -1.633274 1.361059
		CHANNELS 3 Xrotation Zrotation Yrotation
		JOINT lShin
		{
			OFFSET	-2.041588 -20.007561 0.000000
			CHANNELS 3 Xrotation Zrotation Yrotation
			JOINT lFoot
			{
				OFFSET	0.000000 -19.190928 -1.224953
				CHANNELS 3 Xrotation Yrotation Zrotation
				End Site
				{
					OFFSET 0.000000 -2.449905 4.627600
				}
			}
		}
	}
	JOINT rThigh
	{
		OFFSET	-5.308129 -1.633274 1.361059
		CHANNELS 3 Xrotation Zrotation Yrotation
		JOINT rShin
		{
			OFFSET	2.041588 -20.007561 0.000000
			CHANNELS 3 Xrotation Zrotation Yrotation
			JOINT rFoot
			{
				OFFSET	0.000000 -19.190928 -1.224953
				CHANNELS 3 Xrotation Yrotation Zrotation
				End Site
				{
					OFFSET 0.000000 -2.449905 4.627600
				}
			}
		}
	}
}
MOTION
Frames:     14
Frame Time: 0.033333
0.000000 43.729870 0.000000 0.000000 0.000000 0.000000 0.000000 0.000000 0.000000 0.000000 0.000000 0.000000 0.000000 0.000000 0.000000 0.000000 0.000000 0.000000 0.000000 0.000000 0.000000 0.000000 0.000000 0.000000 0.000000 0.000000 0.000000 0.000000 0.000000 0.000000 9.980470 0.000000 0.000000 0.000000 0.000000 0.000000 0.000000 0.004858 0.000000 1.663180 0.000000 0.000000 0.000000 0.000000 0.000000 0.009766 0.000000 0.000000 -0.097656 0.000000 0.000000 0.000000 -0.019531 0.000000 0.009766 0.019531 -0.009766 0.166016 0.009766 0.000000 
0.000000 43.729870 0.000000 0.000000 0.000000 0.000000 -0.129387 -0.066242 -0.004921 0.149162 -0.024323 -0.010031 0.002995 0.077189 0.034636 0.003247 -0.024653 0.025515 -0.003672 0.016321 0.012859 0.014440 0.003658 -0.009546 0.000000 0.008762 -0.006778 -0.050225 -0.003478 0.010255 10.512500 2.144900 -0.245200 0.315400 0.002200 0.000000 0.129200 2.584700 -0.264100 1.785327 9.495000 3.223800 0.000000 0.000000 0.000000 0.009766 0.000000 0.000000 -0.097656 0.000000 0.000000 0.000000 -0.019531 0.000000 0.009766 0.019531 -0.009766 0.166016 0.009766 0.000000 
0.000000 43.729870 0.000000 0.000000 0.000000 0.000000 -0.225665 -0.111767 -0.003260 0.225316 -0.032968 -0.021893 0.006364 0.164000 0.101160 0.006898 -0.052380 0.060744 -0.007802 0.034680 0.044619 0.030682 0.007479 -0.020284 0.000000 0.046003 -0.012309 -0.106721 -0.007391 0.021791 10.512500 2.144900 -0.245200 0.315400 0.002200 0.000000 0.129200 2.584700 -0.264100 1.785025 9.495000 3.223800 0.000000 0.000000 0.000000 0.009766 0.000000 0.000000 -0.097656 0.000000 0.000000 0.000000 -0.019531 0.000000 0.009766 0.019531 -0.009766 0.166016 0.009766 0.000000 
0.000000 43.729870 0.000000 0.000000 0.000000 0.000000 -0.265875 -0.124276 0.006629 0.196940 -0.020249 -0.034446 0.009727 0.250682 0.199340 0.010545 -0.080065 0.103517 -0.011930 0.053027 0.097424 0.046915 0.010947 -0.031015 0.000000 0.116878 -0.015273 -0.163181 -0.011301 0.033319 10.512500 2.144900 -0.245200 0.315400 0.002200 0.000000 0.129200 2.584700 -0.264100 1.784689 9.494999 3.223800 0.000000 0.000000 0.000000 0.009766 0.000000 0.000000 -0.097656 0.000000 0.000000 0.000000 -0.019531 0.000000 0.009766 0.019531 -0.009766 0.166016 0.009766 0.000000 
0.000000 43.729870 0.000000 0.000000 0.000000 0.000000 -0.262417 -0.111028 0.022986 0.086758 0.009218 -0.047585 0.013081 0.337115 0.322633 0.014180 -0.107671 0.152349 -0.016052 0.071352 0.168686 0.063127 0.014111 -0.041733 0.000000 0.217688 -0.015963 -0.219572 -0.015206 0.044833 10.512500 2.144900 -0.245200 0.315400 0.002200 0.000000 0.129200 2.584700 -0.264100 1.784375 9.494999 3.223800 0.000000 0.000000 0.000000 0.009766 0.000000 0.000000 -0.097656 0.000000 0.000000 0.000000 -0.019531 0.000000 0.009766 0.019531 -0.009766 0.166016 0.009766 0.000000 
0.000000 43.729870 0.000000 0.000000 0.000000 0.000000 -0.227688 -0.079281 0.044051 -0.082505 0.050813 -0.061208 0.016421 0.423178 0.464497 0.017801 -0.135158 0.205754 -0.020167 0.089643 0.255815 0.079309 0.017023 -0.052431 0.000000 0.344733 -0.014671 -0.275859 -0.019105 0.056325 10.512500 2.144900 -0.245200 0.315400 0.002200 0.000000 0.129200 2.584700 -0.264100 1.784119 9.495000 3.223800 0.000000 0.000000 0.000000 0.009766 0.000000 0.000000 -0.097656 0.000000 0.000000 0.000000 -0.019531 0.000000 0.009766 0.019531 -0.009766 0.166016 0.009766 0.000000 
0.000000 43.729870 0.000000 0.000000 0.000000 0.000000 -0.174088 -0.036295 0.068065 -0.288126 0.099917 -0.075212 0.019741 0.508745 0.618388 0.021400 -0.162488 0.262244 -0.024272 0.107889 0.356224 0.095453 0.019731 -0.063104 0.000000 0.494313 -0.011691 -0.332010 -0.022993 0.067790 10.487959 1.859937 -0.362917 0.623995 0.009323 -0.318035 -0.546949 2.601484 -0.263126 2.011908 9.500835 3.222930 0.000000 0.000000 0.000000 0.009766 0.000000 0.000000 -0.097656 0.000000 0.000000 0.000000 -0.019531 0.000000 0.009766 0.019531 -0.009766 0.166016 0.009766 0.000000 
0.000000 43.729870 0.000000 0.000000 0.000000 0.000000 -0.114015 0.010672 0.093268 -0.507379 0.151913 -0.089492 0.023038 0.593690 0.777765 0.024973 -0.189618 0.320336 -0.028364 0.126080 0.467323 0.111547 0.022285 -0.073743 0.000000 0.662729 -0.007314 -0.387988 -0.026870 0.079220 10.434643 1.240859 -0.618654 1.294413 0.024799 -1.008972 -2.015893 2.637944 -0.261008 1.685534 9.513518 3.221040 0.000000 0.000000 0.000000 0.009766 0.000000 0.000000 -0.097656 0.000000 0.000000 0.000000 -0.019531 0.000000 0.009766 0.019531 -0.009766 0.166016 0.009766 0.000000 
0.000000 43.729870 0.000000 0.000000 0.000000 0.000000 -0.059868 0.054362 0.117900 -0.717541 0.202181 -0.103947 0.026304 0.677881 0.936084 0.028514 -0.216508 0.378542 -0.032442 0.144204 0.586525 0.127581 0.024736 -0.084344 0.000000 0.846280 -0.001832 -0.443761 -0.030732 0.090608 10.363985 0.420399 -0.957582 2.182914 0.045310 -1.924671 -3.962684 2.686262 -0.258200 3.652905 9.530324 3.218535 0.000000 0.000000 0.000000 0.009766 0.000000 0.000000 -0.097656 0.000000 0.000000 0.000000 -0.019531 0.000000 0.009766 0.019531 -0.009766 0.166016 0.009766 0.000000 
0.000000 43.729870 0.000000 0.000000 0.000000 0.000000 -0.024045 0.087514 0.140202 -0.895888 0.246104 -0.118472 0.029537 0.761179 1.086803 0.032018 -0.243113 0.435377 -0.036501 0.162249 0.711240 0.143546 0.027134 -0.094898 0.000000 1.041268 0.004461 -0.499292 -0.034578 0.101946 10.297755 -0.348655 -1.275274 3.015746 0.064535 -2.783000 -5.787507 2.731554 -0.255568 11.861930 9.546075 3.216187 0.000000 0.000000 0.000000 0.009766 0.000000 0.000000 -0.097656 0.000000 0.000000 0.000000 -0.019531 0.000000 0.009766 0.019531 -0.009766 0.166016 0.009766 0.000000 
0.000000 43.729870 0.000000 0.000000 0.000000 0.000000 -0.018944 0.102871 0.158414 -1.019694 0.279062 -0.132966 0.032729 0.843437 1.223379 0.035478 -0.269385 0.489355 -0.040541 0.180205 0.838879 0.159432 0.029528 -0.105400 0.000000 1.243991 0.011273 -0.554545 -0.038405 0.113228 10.257722 -0.813516 -1.467305 3.519158 0.076155 -3.301828 -6.890546 2.758933 -0.253978 28.603127 9.555594 3.214767 0.000000 0.000000 0.000000 0.009766 0.000000 0.000000 -0.097656 0.000000 0.000000 0.000000 -0.019531 0.000000 0.009766 0.019531 -0.009766 0.166016 0.009766 0.000000 
0.000000 43.729870 0.000000 0.000000 0.000000 0.000000 -0.056965 0.093174 0.170776 -1.066236 0.296438 -0.147323 0.035874 0.924492 1.339269 0.038888 -0.295273 0.538990 -0.044557 0.198057 0.966855 0.175226 0.031968 -0.115842 0.000000 1.450752 0.018313 -0.609484 -0.042210 0.124446 10.265656 -0.721397 -1.429252 3.419399 0.073851 -3.199025 -6.671987 2.753515 -0.254296 49.537479 9.553705 3.215048 0.000000 0.000000 0.000000 0.009766 0.000000 0.000000 -0.097656 0.000000 0.000000 0.000000 -0.019531 0.000000 0.009766 0.019531 -0.009766 0.166016 0.009766 0.000000 
0.000000 43.729870 0.000000 0.000000 0.000000 0.000000 -0.150505 0.051163 0.175528 -1.012789 0.293613 -0.161442 0.038966 1.004166 1.427930 0.042239 -0.320720 0.582796 -0.048547 0.215796 1.092579 0.190920 0.034504 -0.126217 0.000000 1.657849 0.025286 -0.664070 -0.045990 0.135591 10.343326 0.180489 -1.056689 2.442719 0.051304 -2.192460 -4.532015 2.700416 -0.257389 68.668564 9.535231 3.217801 0.000000 0.000000 0.000000 0.009766 0.000000 0.000000 -0.097656 0.000000 0.000000 0.000000 -0.019531 0.000000 0.009766 0.019531 -0.009766 0.166016 0.009766 0.000000 
0.000000 43.729870 0.000000 0.000000 0.000000 0.000000 -0.311963 -0.030420 0.170912 -0.836630 0.265968 -0.175219 0.041996 1.082253 1.482820 0.045524 -0.345660 0.619287 -0.052509 0.233406 1.213461 0.206501 0.037187 -0.136517 0.000000 1.861583 0.031902 -0.718264 -0.049743 0.146656 10.512500 2.144930 -0.245191 0.315366 0.002192 0.000000 0.129188 2.584750 -0.264121 80.000000 9.494990 3.223800 0.000000 0.000000 0.000000 0.009766 0.000000 0.000000 -0.097656 0.000000 0.000000 0.000000 -0.019531 0.000000 0.009766 0.019531 -0.009766 0.166016 0.009766 0.000000 
